<svg preserveAspectRatio="none" overflow="visible" style="display: block;" width="31.4329" height="36" viewBox="0 0 31.4329 36" fill="none" xmlns="http://www.w3.org/2000/svg">
<g id="Logo">
<g id="Ellipse 148">
<circle cx="15.3134" cy="8.59702" r="2.68657" fill="#D9D9D9"/>
<circle cx="15.3134" cy="8.59702" r="2.68657" fill="#F8F7F5"/>
</g>
<g id="Ellipse 164">
<circle cx="6.98504" cy="13.1642" r="2.68657" fill="#D9D9D9"/>
<circle cx="6.98504" cy="13.1642" r="2.68657" fill="#F8F7F5"/>
</g>
<g id="Ellipse 165">
<circle cx="8.32839" cy="5.64179" r="1.34328" fill="#D9D9D9"/>
<circle cx="8.32839" cy="5.64179" r="1.34328" fill="#F8F7F5"/>
</g>
<g id="Ellipse 166">
<circle cx="1.34328" cy="18" r="1.34328" fill="#D9D9D9"/>
<circle cx="1.34328" cy="18" r="1.34328" fill="#F8F7F5"/>
</g>
<g id="Ellipse 167">
<circle cx="8.32839" cy="29.5522" r="1.34328" fill="#D9D9D9"/>
<circle cx="8.32839" cy="29.5522" r="1.34328" fill="#F8F7F5"/>
</g>
<g id="Ellipse 168">
<circle cx="23.1045" cy="29.5522" r="1.34328" fill="#D9D9D9"/>
<circle cx="23.1045" cy="29.5522" r="1.34328" fill="#F8F7F5"/>
</g>
<g id="Ellipse 169">
<circle cx="30.0896" cy="18" r="1.34328" fill="#D9D9D9"/>
<circle cx="30.0896" cy="18" r="1.34328" fill="#F8F7F5"/>
</g>
<g id="Ellipse 170">
<circle cx="22.2985" cy="5.91046" r="1.34328" fill="#D9D9D9"/>
<circle cx="22.2985" cy="5.91046" r="1.34328" fill="#F8F7F5"/>
</g>
<g id="Ellipse 171">
<circle cx="15.1791" cy="0.940299" r="0.940299" fill="#D9D9D9"/>
<circle cx="15.1791" cy="0.940299" r="0.940299" fill="#F8F7F5"/>
</g>
<g id="Ellipse 172">
<circle cx="0.940299" cy="8.19402" r="0.940299" fill="#D9D9D9"/>
<circle cx="0.940299" cy="8.19402" r="0.940299" fill="#F8F7F5"/>
</g>
<g id="Ellipse 173">
<circle cx="0.940299" cy="27.2687" r="0.940299" fill="#D9D9D9"/>
<circle cx="0.940299" cy="27.2687" r="0.940299" fill="#F8F7F5"/>
</g>
<g id="Ellipse 174">
<circle cx="15.1791" cy="35.0597" r="0.940299" fill="#D9D9D9"/>
<circle cx="15.1791" cy="35.0597" r="0.940299" fill="#F8F7F5"/>
</g>
<g id="Ellipse 175">
<circle cx="30.4926" cy="27.2687" r="0.940299" fill="#D9D9D9"/>
<circle cx="30.4926" cy="27.2687" r="0.940299" fill="#F8F7F5"/>
</g>
<g id="Ellipse 176">
<circle cx="30.4926" cy="8.19402" r="0.940299" fill="#D9D9D9"/>
<circle cx="30.4926" cy="8.19402" r="0.940299" fill="#F8F7F5"/>
</g>
<g id="Ellipse 161">
<circle cx="23.6417" cy="13.1642" r="2.68657" fill="#D9D9D9"/>
<circle cx="23.6417" cy="13.1642" r="2.68657" fill="#F8F7F5"/>
</g>
<g id="Ellipse 163">
<circle cx="15.3134" cy="17.4627" r="4.02985" fill="#D9D9D9"/>
<circle cx="15.3134" cy="17.4627" r="4.02985" fill="#F8F7F5"/>
</g>
<g id="Ellipse 159">
<circle cx="6.98504" cy="22.0298" r="2.68657" fill="#D9D9D9"/>
<circle cx="6.98504" cy="22.0298" r="2.68657" fill="#F8F7F5"/>
</g>
<g id="Ellipse 162">
<circle cx="23.6417" cy="22.0298" r="2.68657" fill="#D9D9D9"/>
<circle cx="23.6417" cy="22.0298" r="2.68657" fill="#F8F7F5"/>
</g>
<g id="Ellipse 160">
<circle cx="15.3134" cy="27.403" r="2.68657" fill="#D9D9D9"/>
<circle cx="15.3134" cy="27.403" r="2.68657" fill="#F8F7F5"/>
</g>
</g>
</svg>
