<svg viewBox="0 0 342 342" xmlns="http://www.w3.org/2000/svg" >
<g transform="translate(0,0) scale(1)" ><g id="Frame 734">
<path id="Ellipse 122" d="M171.255 1C173.273 1 175.354 2.01039 177.487 4.17578C179.621 6.34318 181.727 9.59304 183.764 13.8682C187.835 22.4135 191.528 34.8428 194.639 50.2822C200.857 81.1446 204.71 123.825 204.71 171C204.71 218.175 200.857 260.855 194.639 291.718C191.528 307.157 187.835 319.586 183.764 328.132C181.727 332.407 179.621 335.657 177.487 337.824C175.354 339.99 173.273 341 171.255 341C169.237 341 167.156 339.99 165.024 337.824C162.89 335.657 160.783 332.407 158.746 328.132C154.675 319.586 150.983 307.157 147.872 291.718C141.654 260.855 137.8 218.175 137.8 171C137.8 123.825 141.654 81.1446 147.872 50.2822C150.983 34.8429 154.675 22.4135 158.746 13.8682C160.783 9.59313 162.89 6.34318 165.024 4.17578C167.156 2.01043 169.237 1.00005 171.255 1Z" stroke="#AAE9E5" stroke-width="2"/>
<path id="Ellipse 123" d="M1 170.745C1 168.727 2.01039 166.646 4.17578 164.513C6.34318 162.379 9.59304 160.273 13.8682 158.236C22.4135 154.165 34.8428 150.472 50.2822 147.361C81.1446 141.143 123.825 137.29 171 137.29C218.175 137.29 260.855 141.143 291.718 147.361C307.157 150.472 319.586 154.165 328.132 158.236C332.407 160.273 335.657 162.379 337.824 164.513C339.99 166.646 341 168.727 341 170.745C341 172.763 339.99 174.844 337.824 176.976C335.657 179.11 332.407 181.217 328.132 183.254C319.586 187.325 307.157 191.017 291.718 194.128C260.855 200.346 218.175 204.2 171 204.2C123.825 204.2 81.1446 200.346 50.2822 194.128C34.8429 191.017 22.4135 187.325 13.8682 183.254C9.59313 181.217 6.34318 179.11 4.17578 176.976C2.01043 174.844 1.00005 172.763 1 170.745Z" stroke="#AAE9E5" stroke-width="2"/>
<path id="Ellipse 124" d="M23.7753 85.7452C24.7842 83.9978 26.7 82.7003 29.6414 81.9365C32.5855 81.1719 36.4532 80.9725 41.1739 81.3463C50.6098 82.0935 63.2205 85.1098 78.1469 90.1353C107.984 100.181 146.873 118.185 187.727 141.772C228.582 165.36 263.618 190.037 287.236 210.853C299.052 221.267 307.969 230.68 313.334 238.478C316.018 242.379 317.779 245.829 318.589 248.761C319.399 251.69 319.233 253.998 318.224 255.745C317.215 257.493 315.299 258.79 312.358 259.554C309.414 260.318 305.546 260.518 300.825 260.144C291.389 259.397 278.779 256.38 263.853 251.354C234.016 241.308 195.127 223.305 154.272 199.718C113.418 176.131 78.3819 151.453 54.7636 130.636C42.9482 120.223 34.0302 110.81 28.6651 103.012C25.9811 99.111 24.2199 95.6616 23.4099 92.7296C22.6007 89.8005 22.7665 87.4926 23.7753 85.7452Z" stroke="#AAE9E5" stroke-width="2"/>
<path id="Ellipse 126" d="M318.224 85.7448C319.233 87.4922 319.399 89.8001 318.59 92.7293C317.78 95.6612 316.019 99.1105 313.335 103.012C307.97 110.81 299.052 120.223 287.237 130.637C263.618 151.453 228.582 176.13 187.728 199.718C146.873 223.305 107.984 241.309 78.1473 251.355C63.2209 256.38 50.6103 259.396 41.1743 260.144C36.4537 260.517 32.5859 260.318 29.6418 259.554C26.7004 258.79 24.7846 257.492 23.7758 255.745C22.767 253.997 22.6012 251.69 23.4104 248.76C24.2203 245.828 25.9815 242.379 28.6655 238.478C34.0306 230.68 42.9487 221.267 54.764 210.854C78.3823 190.037 113.418 165.359 154.273 141.772C195.127 118.185 234.016 100.182 263.853 90.1358C278.78 85.1103 291.39 82.0932 300.826 81.346C305.546 80.9722 309.414 81.1716 312.358 81.9361C315.3 82.7 317.216 83.9975 318.224 85.7448Z" stroke="#AAE9E5" stroke-width="2"/>
<path id="Ellipse 127" d="M255.998 23.5205C257.746 24.5294 259.043 26.4452 259.807 29.3866C260.572 32.3307 260.771 36.1984 260.397 40.9191C259.65 50.355 256.634 62.9657 251.608 77.8921C241.562 107.729 223.559 146.618 199.971 187.472C176.384 228.327 151.707 263.363 130.89 286.981C120.477 298.797 111.064 307.714 103.265 313.079C99.364 315.763 95.9148 317.525 92.9828 318.335C90.0536 319.144 87.7457 318.978 85.9983 317.969C84.251 316.96 82.9535 315.044 82.1896 312.103C81.4251 309.159 81.2257 305.291 81.5995 300.571C82.3467 291.135 85.3638 278.524 90.3893 263.598C100.435 233.761 118.438 194.872 142.025 154.017C165.613 113.163 190.291 78.1271 211.107 54.5088C221.521 42.6934 230.933 33.7754 238.731 28.4103C242.633 25.7263 246.082 23.9651 249.014 23.1551C251.943 22.3459 254.251 22.5117 255.998 23.5205Z" stroke="#AAE9E5" stroke-width="2"/>
<path id="Ellipse 125" d="M85.9983 23.5207C87.7457 22.5118 90.0536 22.3461 92.9828 23.1553C95.9148 23.9652 99.364 25.7264 103.265 28.4104C111.064 33.7755 120.477 42.693 130.89 54.5084C151.707 78.1267 176.384 113.163 199.971 154.017C223.559 194.872 241.562 233.761 251.608 263.598C256.634 278.524 259.65 291.135 260.397 300.571C260.771 305.291 260.572 309.159 259.807 312.103C259.043 315.045 257.746 316.96 255.998 317.969C254.251 318.978 251.943 319.144 249.014 318.335C246.082 317.525 242.633 315.764 238.731 313.08C230.933 307.714 221.521 298.796 211.107 286.981C190.291 263.363 165.613 228.327 142.025 187.473C118.438 146.618 100.435 107.729 90.3893 77.8917C85.3638 62.9655 82.3467 50.3551 81.5995 40.9192C81.2257 36.1987 81.4251 32.3308 82.1896 29.3867C82.9535 26.4454 84.251 24.5296 85.9983 23.5207Z" stroke="#AAE9E5" stroke-width="2"/>
</g></g>
</svg>
